o part0
v -7.500 0.000 -7.500
v -7.500 0.000 7.500
v -7.500 45.000 -7.500
v -7.500 45.000 7.500
v 7.500 0.000 -7.500
v 7.500 0.000 7.500
v 7.500 45.000 -7.500
v 7.500 45.000 7.500
f 1 2 4 3
f 5 7 8 6
f 1 5 6 2
f 3 4 8 7
f 1 3 7 5
f 2 6 8 4
o part1
v -19.500 0.000 1.000
v -19.500 0.000 11.000
v -19.500 15.000 1.000
v -19.500 15.000 11.000
v -4.500 0.000 1.000
v -4.500 0.000 11.000
v -4.500 15.000 1.000
v -4.500 15.000 11.000
f 9 10 12 11
f 13 15 16 14
f 9 13 14 10
f 11 12 16 15
f 9 11 15 13
f 10 14 16 12
o part2
v 4.000 0.000 -14.000
v 4.000 0.000 -2.000
v 4.000 10.000 -14.000
v 4.000 10.000 -2.000
v 16.000 0.000 -14.000
v 16.000 0.000 -2.000
v 16.000 10.000 -14.000
v 16.000 10.000 -2.000
f 17 18 20 19
f 21 23 24 22
f 17 21 22 18
f 19 20 24 23
f 17 19 23 21
f 18 22 24 20
o part3
v -16.000 25.000 -9.000
v -16.000 25.000 1.000
v -16.000 35.000 -9.000
v -16.000 35.000 1.000
v -6.000 25.000 -9.000
v -6.000 25.000 1.000
v -6.000 35.000 -9.000
v -6.000 35.000 1.000
f 25 26 28 27
f 29 31 32 30
f 25 29 30 26
f 27 28 32 31
f 25 27 31 29
f 26 30 32 28
o part4
v 6.000 28.000 -1.000
v 6.000 28.000 9.000
v 6.000 40.000 -1.000
v 6.000 40.000 9.000
v 16.000 28.000 -1.000
v 16.000 28.000 9.000
v 16.000 40.000 -1.000
v 16.000 40.000 9.000
f 33 34 36 35
f 37 39 40 38
f 33 37 38 34
f 35 36 40 39
f 33 35 39 37
f 34 38 40 36
o part5
v -1.557 41.568 -3.622
v -3.330 41.568 2.110
v 18.417 75.669 2.557
v 16.644 75.669 8.289
v 3.330 38.432 -2.110
v 1.557 38.432 3.622
v 23.304 72.533 4.068
v 21.530 72.533 9.800
f 41 42 44 43
f 45 47 48 46
f 41 45 46 42
f 43 44 48 47
f 41 43 47 45
f 42 46 48 44
o part6
v 3.883 41.694 -0.236
v -0.968 41.694 -3.767
v -7.748 70.581 15.742
v -12.599 70.581 12.211
v 0.968 38.306 3.767
v -3.883 38.306 0.236
v -10.662 67.193 19.745
v -15.513 67.193 16.214
f 49 50 52 51
f 53 55 56 54
f 49 53 54 50
f 51 52 56 55
f 49 51 55 53
f 50 54 56 52
o part7
v -0.102 41.305 4.036
v 4.024 41.305 -0.320
v -14.311 81.825 -9.426
v -10.185 81.825 -13.782
v -4.024 38.695 0.320
v 0.102 38.695 -4.036
v -18.233 79.215 -13.142
v -14.107 79.215 -17.498
f 57 58 60 59
f 61 63 64 62
f 57 61 62 58
f 59 60 64 63
f 57 59 63 61
f 58 62 64 60
o part8
v -3.725 41.933 0.622
v 1.575 41.933 3.433
v 5.329 64.878 -16.453
v 10.630 64.878 -13.641
v -1.575 38.067 -3.433
v 3.725 38.067 -0.622
v 7.479 61.013 -20.507
v 12.780 61.013 -17.696
f 65 66 68 67
f 69 71 72 70
f 65 69 70 66
f 67 68 72 71
f 65 67 71 69
f 66 70 72 68
o part9
v 1.743 40.742 -3.796
v -3.849 40.742 -1.622
v 6.225 89.188 7.733
v 0.633 89.188 9.907
v 3.849 39.258 1.622
v -1.743 39.258 3.796
v 8.332 87.703 13.152
v 2.740 87.703 15.326
f 73 74 76 75
f 77 79 80 78
f 73 77 78 74
f 75 76 80 79
f 73 75 79 77
f 74 78 80 76
