o part0
v -7.500 0.000 -7.500
v -7.500 0.000 7.500
v -7.500 50.000 -7.500
v -7.500 50.000 7.500
v 7.500 0.000 -7.500
v 7.500 0.000 7.500
v 7.500 50.000 -7.500
v 7.500 50.000 7.500
f 1 2 4 3
f 5 7 8 6
f 1 5 6 2
f 3 4 8 7
f 1 3 7 5
f 2 6 8 4
o part1
v 3.000 0.000 5.000
v 3.000 0.000 15.000
v 3.000 10.000 5.000
v 3.000 10.000 15.000
v 13.000 0.000 5.000
v 13.000 0.000 15.000
v 13.000 10.000 5.000
v 13.000 10.000 15.000
f 9 10 12 11
f 13 15 16 14
f 9 13 14 10
f 11 12 16 15
f 9 11 15 13
f 10 14 16 12
o part2
v -13.000 0.000 -13.000
v -13.000 0.000 -5.000
v -13.000 8.000 -13.000
v -13.000 8.000 -5.000
v -5.000 0.000 -13.000
v -5.000 0.000 -5.000
v -5.000 8.000 -13.000
v -5.000 8.000 -5.000
f 17 18 20 19
f 21 23 24 22
f 17 21 22 18
f 19 20 24 23
f 17 19 23 21
f 18 22 24 20
o part3
v -42.640 3.005 -4.000
v -42.640 3.005 4.000
v 3.939 43.924 -4.000
v 3.939 43.924 4.000
v -37.360 -3.005 -4.000
v -37.360 -3.005 4.000
v 9.219 37.914 -4.000
v 9.219 37.914 4.000
f 25 26 28 27
f 29 31 32 30
f 25 29 30 26
f 27 28 32 31
f 25 27 31 29
f 26 30 32 28
